inDegrees=no
num_controls=7
num_derivatives=13
num_iterations=167
num_multipliers=7
num_parameters=0
num_slacks=7
num_states=26
objective=0.542748
objective_accelerations=0.065959
objective_balance=0.003438
objective_effort=0.048341
objective_height=0.415858
objective_ligament=0.009152
solver_duration=1730.149566
status=Solve_Succeeded
success=true
DataType=double
version=3
OpenSimVersion=4.5
endheader
time	/jointset/ground_pelvis/pelvis_tilt/value	/jointset/ground_pelvis/pelvis_tx/value	/jointset/ground_pelvis/pelvis_ty/value	/jointset/hip_r/hip_flexion_r/value	/jointset/hip_r/hip_adduction_r/value	/jointset/hip_r/hip_rotation_r/value	/jointset/back/lumbar_extension/value	/jointset/patellofemoral_r/patellar_flexion_r/value	/jointset/knee_r/knee_flexion_r/value	/jointset/knee_r/knee_adduction_r/value	/jointset/knee_r/knee_rotation_r/value	/jointset/ankle_r/ankle_angle_r/value	/jointset/subtalar_r/subtalar_angle_r/value	/jointset/ground_pelvis/pelvis_tilt/speed	/jointset/ground_pelvis/pelvis_tx/speed	/jointset/ground_pelvis/pelvis_ty/speed	/jointset/hip_r/hip_flexion_r/speed	/jointset/hip_r/hip_adduction_r/speed	/jointset/hip_r/hip_rotation_r/speed	/jointset/back/lumbar_extension/speed	/jointset/patellofemoral_r/patellar_flexion_r/speed	/jointset/knee_r/knee_flexion_r/speed	/jointset/knee_r/knee_adduction_r/speed	/jointset/knee_r/knee_rotation_r/speed	/jointset/ankle_r/ankle_angle_r/speed	/jointset/subtalar_r/subtalar_angle_r/speed	/forceset/tau_hip_flexion_r	/forceset/tau_hip_adduction_r	/forceset/tau_hip_rotation_r	/forceset/tau_knee_flexion_r	/forceset/tau_ankle_angle_r	/forceset/tau_subtalar_angle_r	/forceset/tau_lumbar_extension	lambda_cid13_p0	lambda_cid14_p0	lambda_cid14_p1	lambda_cid14_p2	lambda_cid14_p3	lambda_cid14_p4	lambda_cid14_p5	/jointset/ground_pelvis/pelvis_tilt/accel	/jointset/ground_pelvis/pelvis_tx/accel	/jointset/ground_pelvis/pelvis_ty/accel	/jointset/hip_r/hip_flexion_r/accel	/jointset/hip_r/hip_adduction_r/accel	/jointset/hip_r/hip_rotation_r/accel	/jointset/back/lumbar_extension/accel	/jointset/patellofemoral_r/patellar_flexion_r/accel	/jointset/knee_r/knee_flexion_r/accel	/jointset/knee_r/knee_adduction_r/accel	/jointset/knee_r/knee_rotation_r/accel	/jointset/ankle_r/ankle_angle_r/accel	/jointset/subtalar_r/subtalar_angle_r/accel	gamma_cid13_p0	gamma_cid14_p0	gamma_cid14_p1	gamma_cid14_p2	gamma_cid14_p3	gamma_cid14_p4	gamma_cid14_p5
1.5	-0.2131413597276887	0.00957208026323458	0.8110217059001876	0.9852395670989583	-0.2180997298721799	-0.1295897246349145	-0.3099412072751601	0.8632847942765063	0.8632847942764094	-0.02626204806687545	0.1745265412362189	0.274632162838735	0.07619500577152288	0.4932162605379519	0.2099132132153988	0.5902638815113823	-2.306106133221407	0.008292126341706745	-0.2230413379454194	0.6982157247749105	-2.333170473945974	-2.333170473946917	0.4659013041350736	-0.0001447905115466499	-0.6334494273292534	-0.1859431368972097	-0.1353599113891378	-0.02002932208194857	0.011631450774497	-0.3525423740609637	0.09316720186491984	-0.002624032947290515	0.170283176605107	-21.20388722351199	-10.10248538925915	-0.4562802769952246	-2.268300994469516	-4.070090437937478	-642.2980497528522	60.81677842913839	0.4846937213544587	0.6568660713910546	-0.7549533400741496	-1.234931956316561	-0.1984823661823715	-0.9049279541589201	1.767903426645179	-1.344557752202311	-1.344557752202398	0.363116175207568	-0.02896208409112388	-0.790379017935989	-0.3255219656515406	1.776120280504031e-07	6.080015798681844e-08	-2.16990515925262e-06	4.698211447291215e-07	2.058262478271228e-07	2.308205182565984e-07	-1.259393209051063e-06
1.51	-0.2081855148329067	0.01170373901996675	0.8168852915084045	0.9621194483583577	-0.2180273382600797	-0.1318672203957986	-0.3028719593021187	0.8398889024069708	0.8398889024067605	-0.0215850477299229	0.174525841888041	0.2682589284163556	0.07431888784093209	0.4978703886516366	0.216381383312676	0.5823213674991768	-2.317597834852183	0.006196733913081521	-0.2324524789861229	0.7155256870434646	-2.345676629602377	-2.345676629603373	0.469476537875252	-1.022750785504709e-05	-0.6410942167911353	-0.189221258796717	-0.1277111657851846	-0.02161003835831472	0.01145032775411163	-0.3476845893791307	0.09528016455007214	-0.003751756940815441	0.1633371146685337	-22.73626765794128	-9.153117474238393	-0.6352353919489708	-2.404925241107798	-4.259402408272056	-636.3587669593438	60.44274250943298	0.4434260208050217	0.6362749286451854	-0.8336435800536419	-1.058318485851313	-0.2136766333903906	-0.9581845585461802	1.696315208486796	-1.153990168053819	-1.153990168061634	0.3510305696738046	0.03237137769086399	-0.735968819098813	-0.3204679393651388	1.800114975267008e-07	2.656106060089237e-08	-2.391808327067937e-06	1.901271025161759e-07	2.537002365364464e-07	2.030429772120469e-07	-1.327080242939843e-06
1.52	-0.2031855979241017	0.01389897596762153	0.8226655033468475	0.9388940067575706	-0.2179756223627035	-0.1342386230429934	-0.2956328571900866	0.8163778798417318	0.8163778798414083	-0.01687303433631859	0.1745260293469162	0.2618123581176005	0.07241168656389327	0.5020306633425026	0.2226288513999198	0.5735891275565744	-2.327170705258689	0.004156983396944123	-0.2418227152076312	0.7321865525730686	-2.35619661308656	-2.356196613087608	0.4729039154654638	3.257089949893978e-05	-0.6481166026043977	-0.1921598061868167	-0.1200624201812315	-0.02319075463467941	0.0112692047337312	-0.3428268046972977	0.09739312723522484	-0.004879480934338365	0.15639105273196	-24.25237082902792	-8.20987999237439	-0.812566057538941	-2.54488936176676	-4.445953472614922	-630.5195630310445	60.12461832388563	0.3859230367907188	0.6127256693843904	-0.9128985261535257	-0.8511657114625706	-0.1873539836848097	-0.8967469903198866	1.638084078855138	-0.9473233177582704	-0.9473233177582745	0.3335449452142852	-0.04731500335863765	-0.6658982882120853	-0.2576070637700191	1.880806219305672e-07	-1.150248375892927e-08	-2.716733347822268e-06	-1.504843267044152e-07	3.132653967872623e-07	1.723721811776327e-07	-1.413500810595772e-06
1.53	-0.1981466368180063	0.01615560473918049	0.8283545802934315	0.9155823247658789	-0.217944038107854	-0.136704337302337	-0.2882305984198343	0.7927715350450278	0.79277153504483	-0.01212784210921923	0.174526916974055	0.2552988140754708	0.0704768122120686	0.5056659522748571	0.2286611489079681	0.5641066359074428	-2.334847025784667	0.002156850386566531	-0.2512546823806504	0.7481412436673691	-2.364736899492083	-2.364736899492575	0.4761813157977932	0.0001088940083144576	-0.6544787054824968	-0.1947757410061603	-0.1119190148908623	-0.02561553555041091	0.01105978065053346	-0.3391368302765353	0.1009860516052262	-0.005922003114496701	0.1491346035370662	-25.74706629941759	-6.806618755148249	-0.8646167232687173	-2.713657202751685	-5.016678781882079	-625.093898439846	60.19905478558113	0.3379866417521774	0.5932034490992297	-0.9838442498377402	-0.6780717668797086	-0.2072005976516135	-0.9564155677241858	1.555567953223218	-0.7571062313336365	-0.7571062312501171	0.3313295277639903	0.02952033200719722	-0.60423775357342	-0.2583125556997564	2.021737546949754e-07	-5.362950302851492e-08	-3.151119087324301e-06	-5.558204796206292e-07	3.852524268009137e-07	1.386273017164893e-07	-1.519825757879296e-06
1.54	-0.1930741918585285	0.01847150081733677	0.8339452483704151	0.8922034382601844	-0.2179326267106959	-0.1392623700307969	-0.2806725114729379	0.7690898423983916	0.7690898423983251	-0.007348577488692394	0.1745274507050815	0.2487250747113673	0.06851683333911385	0.508727434018986	0.2344823127193846	0.5539073536365198	-2.340611608059215	0.0001224118586938306	-0.2602864090309199	0.7633521879018983	-2.371266183072978	-2.371266183072913	0.4797183941509917	-3.820832264814046e-05	-0.6601556669991806	-0.197180710412833	-0.1037756096004938	-0.02804031646614241	0.01085035656733799	-0.335446855855773	0.1045789759752276	-0.006964525294655066	0.1418781543421717	-27.21638554444308	-5.409259465196067	-0.9179709077895338	-2.881907141729344	-5.576918650848726	-619.7562395143474	60.31036013795251	0.271161599145639	0.5704989300579987	-1.056256650511782	-0.4688180611765458	-0.1942150871838321	-0.8166988857699681	1.489334706900901	-0.5451227528326108	-0.5451227528326181	0.3854805493881255	-0.09200009131425937	-0.5288700159290786	-0.2154139812358497	1.933809618323571e-07	-1.985262141041373e-07	-3.868906721987336e-06	-1.795494980772545e-06	5.569920902847069e-07	-4.450591205522953e-09	-1.524838957514234e-06
